{
	"asset":{
		"generator":"Khronos glTF Blender I/O v5.0.21",
		"version":"2.0"
	},
	"scene":0,
	"scenes":[
		{
			"name":"Scene",
			"nodes":[
				0,
				1,
				2
			]
		}
	],
	"nodes":[
		{
			"mesh":0,
			"name":"Cart",
			"translation":[
				0,
				0,
				14.87482738494873
			]
		},
		{
			"mesh":1,
			"name":"Wheel",
			"scale":[
				1.4393947124481201,
				1.4393947124481201,
				1.4393947124481201
			],
			"translation":[
				3.2161312103271484,
				1.526808261871338,
				15.501349449157715
			]
		},
		{
			"mesh":1,
			"name":"Wheel.001",
			"scale":[
				1.4393947124481201,
				1.4393947124481201,
				1.4393947124481201
			],
			"translation":[
				-3.048006057739258,
				1.526808261871338,
				15.501349449157715
			]
		}
	],
	"materials":[
		{
			"alphaMode":"BLEND",
			"doubleSided":true,
			"name":"Atlas_1",
			"pbrMetallicRoughness":{
				"baseColorTexture":{
					"index":0
				},
				"metallicFactor":0
			}
		}
	],
	"meshes":[
		{
			"name":"Cube.002",
			"primitives":[
				{
					"attributes":{
						"POSITION":0,
						"NORMAL":1,
						"TEXCOORD_0":2
					},
					"indices":3,
					"material":0
				}
			]
		},
		{
			"name":"Wheel",
			"primitives":[
				{
					"attributes":{
						"POSITION":4,
						"NORMAL":5,
						"TEXCOORD_0":6
					},
					"indices":7,
					"material":0
				}
			]
		}
	],
	"textures":[
		{
			"sampler":0,
			"source":0
		}
	],
	"images":[
		{
			"mimeType":"image/png",
			"name":"Atlas_1",
			"uri":"Atlas_1.png"
		}
	],
	"accessors":[
		{
			"bufferView":0,
			"componentType":5126,
			"count":592,
			"max":[
				12.500200271606445,
				11.846803665161133,
				4.363838195800781
			],
			"min":[
				-5.7111358642578125,
				1.7004960775375366,
				-2.979961633682251
			],
			"type":"VEC3"
		},
		{
			"bufferView":1,
			"componentType":5126,
			"count":592,
			"type":"VEC3"
		},
		{
			"bufferView":2,
			"componentType":5126,
			"count":592,
			"type":"VEC2"
		},
		{
			"bufferView":3,
			"componentType":5123,
			"count":1956,
			"type":"SCALAR"
		},
		{
			"bufferView":4,
			"componentType":5126,
			"count":904,
			"max":[
				1.4334955215454102,
				1.3633339405059814,
				2.4882051944732666
			],
			"min":[
				-1.433494210243225,
				-1.3633350133895874,
				-2.4882051944732666
			],
			"type":"VEC3"
		},
		{
			"bufferView":5,
			"componentType":5126,
			"count":904,
			"type":"VEC3"
		},
		{
			"bufferView":6,
			"componentType":5126,
			"count":904,
			"type":"VEC2"
		},
		{
			"bufferView":7,
			"componentType":5123,
			"count":1602,
			"type":"SCALAR"
		}
	],
	"bufferViews":[
		{
			"buffer":0,
			"byteLength":7104,
			"byteOffset":0,
			"target":34962
		},
		{
			"buffer":0,
			"byteLength":7104,
			"byteOffset":7104,
			"target":34962
		},
		{
			"buffer":0,
			"byteLength":4736,
			"byteOffset":14208,
			"target":34962
		},
		{
			"buffer":0,
			"byteLength":3912,
			"byteOffset":18944,
			"target":34963
		},
		{
			"buffer":0,
			"byteLength":10848,
			"byteOffset":22856,
			"target":34962
		},
		{
			"buffer":0,
			"byteLength":10848,
			"byteOffset":33704,
			"target":34962
		},
		{
			"buffer":0,
			"byteLength":7232,
			"byteOffset":44552,
			"target":34962
		},
		{
			"buffer":0,
			"byteLength":3204,
			"byteOffset":51784,
			"target":34963
		}
	],
	"samplers":[
		{
			"magFilter":9728,
			"minFilter":9984,
			"wrapS":33071,
			"wrapT":33071
		}
	],
	"buffers":[
		{
			"byteLength":54988,
			"uri":"Assets_cart.bin"
		}
	]
}
