{
	"asset":{
		"generator":"Khronos glTF Blender I/O v5.0.21",
		"version":"2.0"
	},
	"scene":0,
	"scenes":[
		{
			"name":"Scene",
			"nodes":[
				0
			]
		}
	],
	"nodes":[
		{
			"mesh":0,
			"name":"Horse_exclamation",
			"translation":[
				12.184703826904297,
				0,
				15.79299545288086
			]
		}
	],
	"materials":[
		{
			"alphaMode":"BLEND",
			"doubleSided":true,
			"name":"Atlas_1",
			"pbrMetallicRoughness":{
				"baseColorTexture":{
					"index":0
				},
				"metallicFactor":0
			}
		}
	],
	"meshes":[
		{
			"name":"Sphere",
			"primitives":[
				{
					"attributes":{
						"POSITION":0,
						"NORMAL":1,
						"TEXCOORD_0":2
					},
					"indices":3,
					"material":0
				}
			]
		}
	],
	"textures":[
		{
			"sampler":0,
			"source":0
		}
	],
	"images":[
		{
			"mimeType":"image/png",
			"name":"Atlas_1",
			"uri":"Atlas_1.png"
		}
	],
	"accessors":[
		{
			"bufferView":0,
			"componentType":5126,
			"count":481,
			"max":[
				7.443990707397461,
				10.563640594482422,
				2.8587958812713623
			],
			"min":[
				-6.408534526824951,
				0.022686004638671875,
				-2.8587958812713623
			],
			"type":"VEC3"
		},
		{
			"bufferView":1,
			"componentType":5126,
			"count":481,
			"type":"VEC3"
		},
		{
			"bufferView":2,
			"componentType":5126,
			"count":481,
			"type":"VEC2"
		},
		{
			"bufferView":3,
			"componentType":5123,
			"count":1236,
			"type":"SCALAR"
		}
	],
	"bufferViews":[
		{
			"buffer":0,
			"byteLength":5772,
			"byteOffset":0,
			"target":34962
		},
		{
			"buffer":0,
			"byteLength":5772,
			"byteOffset":5772,
			"target":34962
		},
		{
			"buffer":0,
			"byteLength":3848,
			"byteOffset":11544,
			"target":34962
		},
		{
			"buffer":0,
			"byteLength":2472,
			"byteOffset":15392,
			"target":34963
		}
	],
	"samplers":[
		{
			"magFilter":9728,
			"minFilter":9984,
			"wrapS":33071,
			"wrapT":33071
		}
	],
	"buffers":[
		{
			"byteLength":17864,
			"uri":"Assets_horse_exclamation.bin"
		}
	]
}
