{
	"asset":{
		"generator":"Khronos glTF Blender I/O v5.0.21",
		"version":"2.0"
	},
	"scene":0,
	"scenes":[
		{
			"name":"Scene",
			"nodes":[
				0,
				1
			]
		}
	],
	"nodes":[
		{
			"mesh":0,
			"name":"Front_Colonial"
		},
		{
			"mesh":1,
			"name":"Gallery_Colonial"
		}
	],
	"materials":[
		{
			"alphaMode":"BLEND",
			"doubleSided":true,
			"name":"Atlas_1",
			"pbrMetallicRoughness":{
				"baseColorTexture":{
					"index":0
				},
				"metallicFactor":0
			}
		}
	],
	"meshes":[
		{
			"name":"Cube",
			"primitives":[
				{
					"attributes":{
						"POSITION":0,
						"NORMAL":1,
						"TEXCOORD_0":2
					},
					"indices":3,
					"material":0
				}
			]
		},
		{
			"name":"Plane",
			"primitives":[
				{
					"attributes":{
						"POSITION":4,
						"NORMAL":5,
						"TEXCOORD_0":6
					},
					"indices":7,
					"material":0
				}
			]
		}
	],
	"textures":[
		{
			"sampler":0,
			"source":0
		}
	],
	"images":[
		{
			"mimeType":"image/png",
			"name":"Atlas_1",
			"uri":"Atlas_1.png"
		}
	],
	"accessors":[
		{
			"bufferView":0,
			"componentType":5126,
			"count":181,
			"max":[
				7,
				13.155698776245117,
				5.056140422821045
			],
			"min":[
				-7,
				0,
				3.276855945587158
			],
			"type":"VEC3"
		},
		{
			"bufferView":1,
			"componentType":5126,
			"count":181,
			"type":"VEC3"
		},
		{
			"bufferView":2,
			"componentType":5126,
			"count":181,
			"type":"VEC2"
		},
		{
			"bufferView":3,
			"componentType":5123,
			"count":480,
			"type":"SCALAR"
		},
		{
			"bufferView":4,
			"componentType":5126,
			"count":8,
			"max":[
				7,
				15.858598709106445,
				8.638550758361816
			],
			"min":[
				-7,
				12.915950775146484,
				3.9755499362945557
			],
			"type":"VEC3"
		},
		{
			"bufferView":5,
			"componentType":5126,
			"count":8,
			"type":"VEC3"
		},
		{
			"bufferView":6,
			"componentType":5126,
			"count":8,
			"type":"VEC2"
		},
		{
			"bufferView":7,
			"componentType":5123,
			"count":12,
			"type":"SCALAR"
		}
	],
	"bufferViews":[
		{
			"buffer":0,
			"byteLength":2172,
			"byteOffset":0,
			"target":34962
		},
		{
			"buffer":0,
			"byteLength":2172,
			"byteOffset":2172,
			"target":34962
		},
		{
			"buffer":0,
			"byteLength":1448,
			"byteOffset":4344,
			"target":34962
		},
		{
			"buffer":0,
			"byteLength":960,
			"byteOffset":5792,
			"target":34963
		},
		{
			"buffer":0,
			"byteLength":96,
			"byteOffset":6752,
			"target":34962
		},
		{
			"buffer":0,
			"byteLength":96,
			"byteOffset":6848,
			"target":34962
		},
		{
			"buffer":0,
			"byteLength":64,
			"byteOffset":6944,
			"target":34962
		},
		{
			"buffer":0,
			"byteLength":24,
			"byteOffset":7008,
			"target":34963
		}
	],
	"samplers":[
		{
			"magFilter":9728,
			"minFilter":9984,
			"wrapS":33071,
			"wrapT":33071
		}
	],
	"buffers":[
		{
			"byteLength":7032,
			"uri":"Assets_colonial.bin"
		}
	]
}
